<?xml version="1.0" encoding="UTF-8" standalone="no"?>
<!DOCTYPE svg PUBLIC "-//W3C//DTD SVG 1.1//EN" "http://www.w3.org/Graphics/SVG/1.1/DTD/svg11.dtd">
<svg width="100%" height="100%" viewBox="0 0 2841 2841" version="1.1" xmlns="http://www.w3.org/2000/svg" xmlns:xlink="http://www.w3.org/1999/xlink" xml:space="preserve" xmlns:serif="http://www.serif.com/" style="fill-rule:evenodd;clip-rule:evenodd;stroke-linejoin:round;stroke-miterlimit:1.41421;">
    <g transform="matrix(1.33333,0,0,1.33333,0,0)">
        <g id="Warstwa-1" serif:id="Warstwa 1" transform="matrix(4.16667,0,0,4.16667,0,0)">
            <g transform="matrix(1,0,0,1,102.025,154.899)">
                <path d="M0,-75.95C-3.875,-76.337 -6.975,-74.787 -9.688,-72.075C-12.4,-69.75 -13.95,-66.262 -13.95,-62.775C-14.337,-58.9 -12.788,-55.8 -10.075,-53.087L36.812,-3.875C39.137,-1.162 42.625,0 46.112,0.387C49.987,0.387 53.087,-0.775 55.8,-3.488C58.512,-6.2 59.675,-9.3 60.062,-12.787C60.062,-16.662 58.9,-19.762 56.187,-22.475L9.3,-71.687C6.587,-74.4 3.487,-75.95 0,-75.95" style="fill:rgb(21,157,205);fill-rule:nonzero;"/>
            </g>
            <g transform="matrix(1,0,0,1,113.65,115.761)">
                <path d="M0,-47.662C0,-43.787 1.162,-40.687 3.875,-37.974L49.212,9.3C51.537,12.013 55.025,13.175 58.512,13.563C62.387,13.563 65.487,12.4 68.2,9.688C70.524,6.975 72.075,3.875 72.462,0.388C72.462,-3.487 71.3,-6.587 68.587,-9.3L23.637,-56.575C20.925,-59.287 17.825,-60.837 13.95,-60.837C10.462,-61.225 6.975,-59.675 4.262,-56.962C1.55,-54.637 0,-51.15 0,-47.662" style="fill:rgb(21,157,205);fill-rule:nonzero;"/>
            </g>
            <g transform="matrix(1,0,0,1,190.762,123.123)">
                <path d="M0,305.738L-94.163,299.538L-117.413,206.538L-37.587,153.451L39.525,222.425L0,305.738ZM-21.7,131.751L0.775,35.651L100.75,1.551L172.824,67.813L153.449,163.913L58.9,203.438L-21.7,131.751ZM-14.725,12.401C-17.05,13.176 -18.988,14.339 -20.538,15.888C-22.087,17.826 -23.25,19.763 -23.638,22.089L-48.438,127.876L-140.275,189.1C-142.6,190.65 -144.537,192.975 -145.312,195.688C-146.475,198.013 -146.862,201.113 -146.087,203.826L-118.188,315.426C-117.8,318.525 -116.25,320.85 -113.925,322.788C-111.6,324.338 -108.887,325.5 -105.788,325.887L7.75,333.25C10.462,333.637 12.787,332.863 15.5,331.7C17.825,330.15 19.375,328.213 20.925,325.5L66.262,229.4L170.499,186.388C172.437,185.225 174.374,184.063 175.537,182.513C177.087,180.576 177.862,178.638 178.637,176.313L199.562,73.626L266.986,50.763C270.474,49.214 273.187,46.888 274.736,43.788C276.674,40.301 276.674,36.813 275.512,33.326C274.349,29.839 272.024,27.126 268.536,25.576C265.437,24.026 261.949,23.638 258.462,24.801L191.037,47.663L113.149,-24.024C111.212,-25.574 109.274,-26.737 106.949,-27.124C104.237,-27.899 101.912,-27.512 99.587,-26.737L-14.725,12.401Z" style="fill:rgb(21,157,205);fill-rule:nonzero;"/>
            </g>
        </g>
    </g>
</svg>
